<?xml version="1.0" standalone="no"?>
<!DOCTYPE svg PUBLIC "-//W3C//DTD SVG 20010904//EN"
 "http://www.w3.org/TR/2001/REC-SVG-20010904/DTD/svg10.dtd">
<svg version="1.0" xmlns="http://www.w3.org/2000/svg"
 width="1024.000000pt" height="1024.000000pt" viewBox="0 0 1024.000000 1024.000000"
 preserveAspectRatio="xMidYMid meet">

<g transform="translate(0.000000,1024.000000) scale(0.100000,-0.100000)"
fill="#000000" stroke="none">
<path d="M3143 9331 c-75 -26 -128 -64 -158 -116 -23 -38 -31 -44 -51 -40 -13
3 -35 7 -48 10 -31 6 -118 -10 -162 -31 -45 -22 -96 -75 -130 -137 -36 -66
-45 -175 -20 -238 9 -23 13 -45 9 -49 -14 -13 -273 -91 -282 -86 -5 3 -30 61
-56 128 -84 215 -146 326 -234 421 -69 74 -110 92 -206 91 -85 -1 -290 -46
-360 -80 -47 -22 -87 -84 -104 -158 -10 -44 -17 -57 -34 -61 -12 -2 -75 -16
-140 -29 -67 -14 -130 -34 -146 -45 -42 -30 -73 -111 -79 -209 -5 -89 -17
-112 -56 -112 -33 0 -73 -35 -86 -76 -7 -20 -10 -75 -8 -130 l3 -94 -60 -29
c-71 -34 -129 -89 -147 -140 -43 -122 35 -392 143 -497 l40 -39 84 1 84 2 31
-82 c47 -124 75 -165 125 -187 37 -16 46 -27 61 -67 40 -111 79 -184 116 -217
48 -44 87 -46 251 -8 l117 27 63 -66 c87 -93 93 -93 287 -23 85 31 175 63 200
72 104 37 186 182 225 398 22 127 30 402 16 570 -7 77 -14 149 -17 161 -5 18
7 24 123 62 70 23 131 38 135 34 4 -4 16 -92 28 -197 23 -206 70 -561 98 -745
l18 -114 -80 -76 c-118 -113 -205 -262 -242 -415 -19 -81 -18 -255 1 -330 33
-125 119 -270 212 -355 62 -57 174 -116 237 -125 l44 -7 17 -92 c9 -50 32
-167 51 -260 19 -93 39 -199 44 -235 13 -83 115 -570 205 -976 81 -366 183
-1045 173 -1163 l-3 -43 -116 110 c-207 195 -308 352 -433 666 -91 230 -126
392 -126 577 0 117 -10 153 -52 180 -87 56 -178 11 -280 -139 -98 -146 -158
-290 -204 -488 -23 -104 -28 -147 -31 -315 -2 -107 -6 -205 -8 -216 -5 -21 -7
-20 -42 12 -20 19 -38 32 -41 30 -2 -3 -4 -27 -4 -54 1 -68 41 -167 122 -303
38 -63 72 -127 75 -141 6 -23 4 -26 -13 -21 -35 9 -62 -14 -62 -53 0 -66 34
-112 213 -282 215 -206 383 -319 623 -417 143 -59 298 -110 354 -117 22 -3 25
-8 24 -38 -1 -19 -7 -143 -13 -275 -23 -466 -29 -827 -16 -860 27 -66 100 -92
165 -58 56 29 71 68 81 206 13 181 38 898 50 1427 14 610 5 780 -60 1145 -22
121 -42 240 -46 265 -9 64 -171 841 -205 985 -15 66 -38 174 -50 240 -18 102
-92 492 -120 635 -5 25 -8 45 -7 46 2 0 65 23 173 61 7 3 15 -34 23 -104 16
-142 66 -365 95 -429 34 -75 180 -318 238 -396 27 -36 89 -104 137 -151 429
-408 869 -593 1401 -591 311 1 571 65 840 205 180 94 294 178 458 334 40 39
80 73 87 77 7 5 58 68 113 140 107 143 241 378 266 468 9 30 29 142 44 248 16
106 31 194 33 196 3 3 156 -42 167 -50 3 -2 -41 -221 -58 -284 -5 -19 -18 -98
-29 -175 -11 -77 -29 -171 -40 -210 -10 -38 -29 -131 -41 -205 -12 -74 -30
-171 -41 -215 -11 -45 -33 -150 -49 -235 -36 -190 -62 -323 -105 -545 -19 -93
-41 -219 -50 -280 -9 -60 -26 -161 -36 -224 -57 -333 -67 -542 -49 -1031 5
-151 14 -419 20 -595 20 -647 31 -858 47 -893 46 -97 181 -103 229 -10 15 29
16 70 5 488 -17 676 -31 1350 -33 1565 -1 158 4 219 25 360 15 94 35 231 47
305 11 74 33 198 49 275 17 77 58 280 92 450 34 171 77 382 94 470 57 282 152
807 170 935 11 74 14 80 45 80 45 0 117 28 187 72 119 75 226 219 267 358 42
142 39 356 -7 483 -34 94 -125 223 -217 310 l-80 75 15 139 c9 76 29 244 45
373 16 129 36 303 45 385 9 83 18 155 20 161 2 8 34 0 92 -22 48 -18 108 -36
132 -40 l43 -7 -5 -51 c-41 -410 -40 -397 -28 -551 12 -157 45 -328 79 -406
26 -59 75 -115 122 -139 21 -10 82 -32 136 -48 54 -17 128 -42 164 -57 76 -31
147 -35 187 -10 16 9 49 40 75 68 l46 51 104 -24 c156 -35 206 -36 248 -8 49
33 96 108 121 192 25 83 34 96 64 96 12 0 34 9 48 20 25 20 75 127 96 205 l10
40 63 -3 c83 -5 125 9 177 60 89 89 151 241 151 373 0 93 -19 142 -71 192 -39
36 -123 83 -149 83 -16 0 -18 14 -22 123 -4 141 -12 161 -83 198 -37 20 -46
30 -50 59 -28 178 -47 230 -96 256 -18 9 -91 28 -163 43 l-129 26 -13 52 c-16
63 -45 122 -71 145 -27 25 -92 46 -227 74 -144 29 -180 30 -250 4 -129 -49
-237 -202 -356 -505 -24 -60 -46 -113 -49 -117 -4 -5 -52 8 -108 26 -56 19
-128 40 -161 47 l-60 13 20 50 c16 41 19 67 16 136 -5 96 -25 145 -80 196 -62
59 -113 79 -210 80 l-87 1 -40 50 c-58 74 -132 108 -231 107 -73 -1 -114 -13
-170 -49 -25 -16 -27 -16 -79 17 -48 29 -64 33 -137 37 -71 3 -90 0 -136 -21
-29 -14 -67 -37 -84 -51 -47 -40 -102 -125 -128 -199 -18 -54 -25 -64 -38 -57
-75 42 -562 92 -1113 115 -385 16 -1188 -47 -1407 -111 l-47 -14 -21 63 c-55
167 -174 264 -337 274 -78 5 -116 -5 -170 -45 l-32 -23 -33 19 c-46 27 -134
51 -182 51 -23 -1 -64 -9 -93 -19z m582 -152 c35 -31 71 -86 62 -95 -3 -3 -24
0 -48 6 -35 9 -59 8 -114 -4 -63 -13 -71 -13 -82 2 -40 51 20 122 104 122 33
0 50 -7 78 -31z m3318 -9 c27 -30 34 -63 19 -88 -7 -10 -17 -9 -53 4 -24 8
-79 18 -121 21 l-77 6 16 23 c8 13 38 35 66 49 66 33 110 29 150 -15z m-3703
3 c9 -12 25 -58 34 -103 19 -86 17 -135 -9 -196 -13 -32 -17 -34 -60 -34 -87
0 -161 60 -201 165 -28 75 1 150 70 181 46 21 144 13 166 -13z m4070 4 c41
-21 70 -74 70 -129 0 -113 -100 -211 -201 -196 -18 2 -29 16 -47 58 -19 46
-22 69 -19 139 3 80 5 85 35 113 27 23 41 28 85 28 28 0 63 -6 77 -13z m-5673
-74 c-3 -10 -17 -49 -31 -88 -35 -99 -66 -282 -75 -451 -4 -80 -12 -149 -17
-154 -5 -5 -44 -25 -86 -44 l-78 -35 -11 21 c-9 16 -10 79 -6 223 6 200 21
318 54 430 22 71 48 88 153 103 100 14 103 14 97 -5z m7233 -23 c36 -6 72 -13
81 -16 31 -9 68 -119 94 -278 17 -108 23 -432 8 -447 -10 -10 -129 30 -170 57
-21 13 -23 22 -23 113 0 192 -33 431 -74 533 l-24 58 22 -5 c11 -2 50 -9 86
-15z m-6023 -130 c29 -52 53 -104 53 -116 0 -28 -40 -64 -81 -70 -144 -24
-238 136 -141 239 26 27 73 47 102 44 8 -1 38 -45 67 -97z m4826 68 c28 -15
57 -69 57 -109 0 -71 -83 -149 -160 -149 -41 0 -100 33 -100 55 0 8 12 34 26
57 15 23 39 70 55 106 l29 64 37 -7 c21 -4 46 -11 56 -17z m-2088 -38 c310
-17 770 -63 788 -80 5 -4 -9 -30 -30 -59 -42 -57 -47 -58 -163 -41 -115 16
-378 39 -607 51 -339 19 -834 -5 -1284 -61 -86 -11 -163 -22 -172 -26 -12 -4
-23 8 -41 44 -14 27 -33 57 -42 66 -9 9 -15 19 -12 21 6 6 233 33 383 45 77 6
169 16 205 22 148 24 677 34 975 18z m1343 -60 c39 -24 56 -62 48 -109 -10
-64 -48 -85 -191 -106 l-80 -11 1 -46 c0 -56 35 -107 91 -133 33 -16 43 -17
88 -5 77 20 139 16 275 -18 129 -32 346 -105 374 -125 13 -11 13 -33 -5 -217
-10 -113 -30 -290 -44 -395 -13 -104 -27 -229 -31 -277 -3 -49 -8 -88 -10 -88
-2 0 -59 35 -126 79 -222 142 -352 219 -398 237 -25 9 -46 18 -48 20 -10 7 23
332 41 408 l21 89 -24 19 c-14 11 -47 32 -75 45 -145 74 -274 183 -319 270
-38 76 -12 210 57 281 83 87 275 131 355 82z m-3198 -30 c106 -54 163 -124
175 -215 15 -114 -36 -197 -188 -306 -82 -58 -126 -82 -193 -104 -47 -16 -89
-35 -91 -42 -3 -7 2 -35 10 -61 9 -26 27 -123 42 -217 14 -93 30 -185 35 -203
7 -27 6 -34 -8 -39 -85 -29 -268 -129 -441 -240 -63 -40 -120 -73 -126 -73 -8
0 -15 27 -19 73 -4 39 -16 126 -27 192 -10 66 -32 242 -49 390 -16 149 -32
280 -35 292 -6 24 -3 25 160 65 44 10 134 38 200 61 l120 42 150 0 c134 0 154
2 182 20 47 30 83 83 83 121 0 30 -3 34 -37 39 -85 13 -149 28 -175 41 -39 20
-68 54 -68 81 0 25 53 90 84 104 39 17 167 4 216 -21z m-2575 -132 c-21 -102
-35 -271 -35 -430 l0 -148 -50 -31 c-40 -24 -52 -39 -62 -72 l-13 -42 -12 75
c-23 144 -27 374 -9 509 22 166 26 173 101 187 100 19 94 23 80 -48z m8182 27
c26 -11 35 -23 48 -67 41 -138 48 -206 42 -398 -3 -106 -12 -209 -20 -240 -14
-54 -19 -54 -31 2 -4 17 -22 36 -51 55 -54 34 -53 25 -59 288 -4 179 -10 230
-40 368 -4 16 0 18 37 12 23 -4 56 -13 74 -20z m-1970 -109 c43 -67 200 -109
271 -72 17 9 44 16 59 16 42 -1 208 -48 505 -143 317 -101 358 -118 358 -146
0 -24 -20 -121 -25 -121 -2 0 -25 9 -52 21 -26 11 -115 45 -198 76 -82 30
-193 71 -245 90 -157 58 -350 122 -435 144 -44 11 -129 35 -190 54 -60 18
-144 38 -185 45 -92 15 -122 29 -65 30 22 1 65 9 95 20 76 25 82 24 107 -14z
m-4159 2 c124 1 74 -39 -83 -69 -179 -33 -378 -81 -443 -106 -37 -14 -116 -40
-177 -58 -60 -18 -166 -53 -235 -78 -330 -120 -414 -147 -422 -139 -5 5 -10
37 -11 72 l-2 62 80 29 c98 35 346 114 555 176 124 37 168 45 220 44 216 -8
201 -10 286 36 68 37 85 41 119 36 22 -3 73 -6 113 -5z m2702 -33 c261 -24
329 -32 361 -41 11 -3 18 -21 22 -59 13 -131 161 -311 325 -394 47 -24 46 -21
32 -123 -5 -40 -12 -99 -16 -132 -5 -53 -8 -58 -27 -53 -12 3 -62 14 -112 26
-49 11 -144 26 -210 32 -104 9 -146 20 -315 75 -215 71 -359 104 -455 104
l-64 0 -21 58 c-46 125 -101 188 -189 217 -43 14 -59 15 -100 5 -58 -14 -115
-58 -141 -111 -11 -21 -23 -39 -26 -39 -3 0 -22 14 -44 31 -52 42 -104 48
-149 17 -55 -38 -73 -81 -68 -164 l4 -72 -37 5 c-50 7 -171 -18 -310 -65 -123
-41 -168 -51 -355 -82 -66 -10 -149 -28 -185 -39 -35 -11 -65 -19 -66 -18 -1
1 -9 61 -18 132 -10 72 -20 140 -23 153 -4 17 -1 22 15 22 32 0 167 97 233
168 69 73 124 176 134 251 l6 47 202 18 c111 9 270 23 352 31 401 40 813 39
1245 0z m-690 -525 c23 -23 62 -85 94 -148 66 -131 97 -162 164 -162 26 0 67
10 92 21 33 15 56 19 87 14 71 -10 216 -62 326 -115 l105 -50 103 0 c168 0
389 -50 524 -117 163 -82 587 -354 718 -461 157 -128 281 -290 312 -407 18
-70 20 -192 4 -284 -13 -76 -19 -89 -68 -154 -96 -128 -273 -171 -463 -111
-111 35 -142 52 -214 118 -73 66 -123 138 -153 221 -12 33 -39 94 -60 135 -21
41 -76 181 -121 310 -141 405 -205 510 -310 510 -54 0 -90 -22 -90 -55 0 -13
20 -79 45 -147 25 -68 58 -159 74 -203 190 -521 233 -624 323 -760 l52 -79 6
-156 c4 -106 10 -162 19 -176 22 -34 0 -216 -39 -329 -75 -214 -159 -345 -326
-505 -202 -194 -415 -320 -717 -425 -226 -79 -515 -93 -822 -40 -337 59 -676
238 -936 495 -139 138 -249 323 -310 522 -31 100 -32 110 -36 329 l-5 226 52
68 c94 127 177 298 287 595 102 275 111 298 164 427 57 141 60 173 23 202 -47
37 -130 20 -173 -35 -36 -46 -108 -207 -208 -464 -205 -531 -255 -618 -414
-725 -125 -84 -239 -114 -356 -94 -145 24 -268 110 -325 226 -29 59 -32 76
-36 179 -5 131 4 176 55 281 63 130 199 258 447 420 495 325 774 443 1111 472
86 7 114 14 205 54 108 46 258 97 288 97 11 0 24 -17 35 -45 46 -110 187 -159
277 -95 51 37 51 65 -1 207 -21 56 -22 66 -11 119 12 61 29 86 77 115 48 30
80 24 125 -21z m-4475 -3 c1 -12 5 -49 10 -82 8 -69 4 -76 -64 -100 l-42 -15
-16 37 c-22 54 -21 120 4 144 20 20 94 51 102 43 3 -2 5 -14 6 -27z m9023 -20
c22 -20 24 -28 19 -90 -6 -84 -13 -93 -61 -76 -52 19 -79 46 -71 73 3 11 9 49
12 83 l6 62 36 -15 c20 -8 46 -25 59 -37z m-8585 -697 c61 -88 80 -103 134
-110 38 -4 51 -12 76 -43 21 -25 27 -41 21 -47 -18 -18 -134 -32 -150 -19 -23
19 -82 133 -114 220 -34 93 -33 93 33 -1z m348 -7 c108 -157 152 -191 258
-200 119 -10 123 -35 9 -77 l-73 -28 -44 49 c-78 85 -232 333 -207 333 2 0 28
-35 57 -77z m7302 -36 c-49 -97 -126 -210 -171 -251 -21 -18 -23 -18 -109 18
-48 19 -103 39 -121 42 -37 7 -45 16 -36 38 5 13 20 15 98 10 50 -2 106 -7
124 -9 28 -3 41 4 96 56 36 33 86 94 111 135 26 41 50 73 53 70 3 -4 -17 -52
-45 -109z m393 67 c-30 -85 -108 -253 -119 -257 -7 -2 -49 1 -94 6 -94 11 -99
18 -53 70 24 28 40 36 80 41 44 6 58 14 96 54 25 26 57 66 71 90 30 51 38 50
19 -4z m-6712 -3241 c32 -141 97 -366 131 -453 90 -234 216 -418 455 -665 91
-93 193 -192 228 -218 l62 -48 -5 -167 c-7 -205 -12 -252 -29 -252 -32 0 -117
33 -154 60 -23 16 -45 30 -50 30 -4 0 -14 9 -22 20 -8 11 -20 20 -28 20 -7 0
-24 11 -38 25 -14 14 -34 25 -45 25 -16 0 -17 3 -7 19 13 21 52 33 65 21 4 -4
24 -13 43 -19 57 -19 23 2 -120 75 -128 65 -140 75 -250 184 -64 63 -126 129
-138 145 l-22 30 5 -29 c3 -21 -2 -33 -18 -47 -12 -10 -26 -18 -32 -18 -15 0
-84 112 -107 172 -66 174 -83 306 -83 637 1 190 16 295 60 403 23 57 64 127
76 127 3 0 13 -35 23 -77z m536 -1569 c0 -2 -9 -4 -21 -4 -11 0 -18 4 -14 10
5 8 35 3 35 -6z"/>
<path d="M7311 8309 c-72 -12 -138 -42 -146 -68 -3 -12 2 -39 14 -66 15 -35
29 -49 58 -61 123 -52 308 94 221 173 -29 26 -78 33 -147 22z"/>
<path d="M3170 8289 c-29 -12 -40 -26 -40 -57 0 -71 84 -135 179 -136 72 -1
106 19 122 74 19 63 5 91 -56 112 -55 19 -166 22 -205 7z"/>
<path d="M4392 7058 c-95 -46 -143 -167 -112 -280 15 -52 91 -133 145 -154
144 -55 328 78 327 237 -1 82 -53 153 -149 203 -47 24 -156 21 -211 -6z m169
-57 c38 -39 38 -72 -2 -105 -38 -33 -69 -33 -103 -1 -36 33 -36 86 0 114 37
29 70 26 105 -8z"/>
<path d="M5997 7064 c-121 -37 -184 -189 -128 -309 68 -146 250 -191 368 -90
113 96 122 237 23 336 -73 73 -161 94 -263 63z m128 -69 c33 -33 32 -70 -4
-106 -35 -34 -54 -36 -98 -9 -28 17 -33 25 -33 59 0 76 82 110 135 56z"/>
<path d="M5119 6765 c-145 -30 -240 -98 -273 -197 -17 -50 -18 -63 -7 -111 27
-123 161 -251 321 -308 l45 -16 0 -99 0 -98 -40 -23 c-249 -143 -664 -32 -785
210 l-31 62 53 6 c61 7 92 23 107 56 40 88 -160 154 -291 95 -122 -54 -201
-191 -158 -273 20 -36 87 -23 141 28 l26 24 6 -38 c12 -88 46 -151 125 -232
83 -85 142 -121 256 -156 l70 -21 17 -71 c38 -156 130 -326 222 -410 23 -22
70 -56 103 -75 183 -107 331 -113 506 -21 167 88 269 233 355 506 l18 59 65
21 c177 59 321 189 366 332 8 28 18 56 20 64 3 11 12 8 32 -12 57 -54 139 -27
149 49 16 119 -146 244 -315 244 -72 0 -132 -25 -158 -66 -34 -50 13 -93 118
-108 45 -7 46 -8 38 -35 -33 -116 -148 -211 -331 -272 -153 -51 -318 -37 -445
37 -37 22 -42 30 -48 71 -10 73 -7 140 7 150 6 5 32 18 57 27 119 46 247 151
290 236 68 137 -9 274 -195 346 -63 24 -85 27 -220 30 -100 2 -172 -1 -216
-11z m389 -150 c37 -15 43 -21 40 -43 -2 -16 -15 -35 -36 -48 -38 -26 -158
-38 -314 -33 -86 4 -99 7 -122 28 -47 44 -27 77 66 107 64 21 308 14 366 -11z
m-313 -962 c19 -153 54 -227 104 -221 38 5 60 46 82 153 11 55 21 100 22 101
1 1 34 -6 72 -16 39 -10 103 -21 143 -25 l73 -7 -7 -37 c-3 -20 -21 -69 -39
-109 -45 -95 -118 -172 -204 -215 -59 -29 -75 -32 -152 -32 -76 0 -93 4 -151
33 -38 18 -83 51 -108 78 -50 54 -111 177 -117 238 l-5 44 58 7 c69 8 169 31
192 45 27 15 30 12 37 -37z"/>
<path d="M2640 3081 c5 -11 15 -23 21 -27 6 -3 3 5 -6 20 -20 30 -30 35 -15 7z"/>
</g>
</svg>
